# xmcd
# 
# Track frame offsets:
#     150
#     35276
#     54835
#     106837
#     164054
#     213184
#     248901
# 
# Disc length: 3600
# 
# Revision: 2
# Processed by: cddbd v1.5.2PL0 Copyright (c) Steve Scherf et al.
# Submitted via: fre:ac v1.0.17
# 
DISCID=540e0e07
DTITLE=Various Artist - Narissas großes Rennen
DYEAR=2015
DGENRE=
TTITLE0=Ella gray - Die Kandidatin
TTITLE1=Ella gray - Unterwerwegs nach Perlenriff
TTITLE2=Ella gray - Willkommen in der Akademie der Wellenreiter
TTITLE3=Ella gray - Die erste Hürde
TTITLE4=Ella gray - Mach dir keine Sorgen
TTITLE5=Ella gray - Narissa und der Sturm
TTITLE6=Ella gray - Ein neues Leben beginnt
EXTD=
EXTT0=
EXTT1=
EXTT2=
EXTT3=
EXTT4=
EXTT5=
EXTT6=
PLAYORDER=
